<?xml version="1.0" encoding="UTF-8"?>
<svg width="180px" height="100px" viewBox="0 0 180 100" version="1.1" xmlns="http://www.w3.org/2000/svg" xmlns:xlink="http://www.w3.org/1999/xlink">
    <!-- Generator: Sketch 53.2 (72643) - https://sketchapp.com -->
    <title>Artboard</title>
    <desc>Created with Sketch.</desc>
    <g id="Artboard" stroke="none" stroke-width="1" fill="none" fill-rule="evenodd">
        <g id="Tab2" transform="translate(49.000000, 14.000000)" fill-rule="nonzero">
            <g id="Active">
                <path d="M74.8580768,58.7318734 L60.676964,58.7318734 L60.676964,52.8465692 L59.2037998,52.8465692 C65.3946109,47.0742629 68.893816,39.0914364 68.893816,30.4824135 C68.893816,21.996982 65.3347453,13.8175863 59.0488535,7.97583341 L57.8562361,7.04713241 L56.4159393,8.90688852 L57.5299097,9.76731999 C63.260577,15.0994055 66.546144,22.6490737 66.546144,30.4824135 C66.546144,39.3256715 62.5480586,47.4509224 55.5742989,52.8465692 L51.286276,52.8465692 L51.286276,55.2006909 L58.329292,55.2006909 L58.329292,62.2630558 L20.7665399,62.2630558 L20.7665399,55.2006909 L27.8095559,55.2006909 L27.8095559,52.8465692 L23.521533,52.8465692 C16.5477733,47.4509224 12.5496879,39.3256715 12.5496879,30.4824135 C12.5496879,22.6490737 15.8352548,15.0994055 21.4861014,9.83558951 L22.6787187,8.90688852 L21.238422,7.04713241 L19.9671576,8.04292587 C13.7610866,13.8175863 10.2020159,21.996982 10.2020159,30.4824135 C10.2020159,39.0914364 13.701221,47.0742629 19.8920321,52.8465692 L18.4188679,52.8465692 L18.4188679,58.7318734 L4.23775512,58.7318734 L9.87334177,65.7942383 L4.23775512,72.8566033 L32.5048999,72.8566033 L32.5048999,64.6171775 L46.590932,64.6171775 L46.590932,72.8566033 L74.8580768,72.8566033 L69.2224901,65.7942383 L74.8580768,58.7318734 Z M12.8783619,65.7942383 L9.12326057,61.085995 L18.4188679,61.085995 L18.4188679,64.0533654 L27.6076561,70.5024816 L9.12326057,70.5024816 L12.8783619,65.7942383 Z M30.1572279,69.4184086 L23.3161117,64.6171775 L30.1572279,64.6171775 L30.1572279,69.4184086 Z M48.938604,64.6171775 L55.7797202,64.6171775 L48.938604,69.4184086 L48.938604,64.6171775 Z M69.9725713,70.5024816 L51.4881758,70.5024816 L60.676964,64.0533654 L60.676964,61.085995 L69.9725713,61.085995 L66.2174699,65.7942383 L69.9725713,70.5024816 Z" id="Shape" fill="#000000"></path>
                <polygon id="Path" fill="#FF06F4" points="50.3695101 62.2630558 52.8333918 49.9121566 44.7855722 52.6017406 39.5479159 43.4112496 34.3102597 52.6017406 26.2624401 49.9121566 28.7263218 62.2630558"></polygon>
                <polygon id="Path" fill="#000000" points="38.3740799 52.8465692 40.7217519 52.8465692 40.7217519 55.2006909 38.3740799 55.2006909"></polygon>
                <polygon id="Path" fill="#000000" points="30.1572279 57.5548125 38.3740799 57.5548125 38.3740799 59.9089342 30.1572279 59.9089342"></polygon>
                <polygon id="Path" fill="#000000" points="40.7217519 57.5548125 48.938604 57.5548125 48.938604 59.9089342 40.7217519 59.9089342"></polygon>
                <g id="Blue" transform="translate(0.241672, 1.055893)" fill="#50E3C2">
                    <path d="M16.2460284,37.5505945 L15.2294864,38.1391249 C12.4228445,39.7646459 11.460299,43.3640979 13.0813665,46.1784504 C11.460299,43.3640979 7.8707085,42.3989081 5.06406662,44.0244291 L4.04752464,44.6129595 L4.63444264,45.6322942 C6.25551016,48.4466466 9.84510066,49.4118365 12.6517425,47.7863155 L13.6682845,47.1977851 L14.6848265,46.6092546 C17.4914684,44.9837336 18.4540139,41.3842816 16.8329464,38.5699292 L16.2460284,37.5505945 Z" id="Path"></path>
                    <path d="M14.910203,10.2839805 C17.2027047,7.98518065 17.2027047,4.25978313 14.910203,1.96098334 L14.080301,1.12880133 L13.2503989,1.96098334 C10.9578972,4.25978313 10.9578972,7.98518065 13.2503989,10.2839805 L14.080301,11.1161625 L14.910203,11.9483445 C17.2027047,14.2471443 20.9178957,14.2471443 23.2103974,11.9483445 L24.0402994,11.1161625 L23.2103974,10.2839805 C20.9190695,7.98518065 17.2027047,7.98518065 14.910203,10.2839805 Z" id="Path"></path>
                    <path d="M6.8013439,32.9577032 L7.97517991,32.9577032 L9.14901591,32.9577032 C12.3899771,32.9577032 15.0181959,30.322264 15.0181959,27.072399 L15.0181959,25.8953382 L13.8443599,25.8953382 C10.6033987,25.8953382 7.97517991,28.5307774 7.97517991,31.7806423 C7.97517991,28.5307774 5.34696109,25.8953382 2.10599989,25.8953382 L0.932163885,25.8953382 L0.932163885,27.072399 C0.932163885,30.322264 3.5603827,32.9577032 6.8013439,32.9577032 Z" id="Path"></path>
                    <path d="M8.75225934,40.7580853 L9.88618492,40.4532265 L11.0201105,40.1483678 C14.1507311,39.3067693 16.0089135,36.0804455 15.1707946,32.9400473 L14.8667711,31.8030065 L13.7328455,32.1078653 C10.6022249,32.9494637 8.74404249,36.1757875 9.58216139,39.3161858 C8.74286865,36.1769645 5.52538417,34.3136772 2.39358971,35.1540987 L1.26083797,35.4601345 L1.56486149,36.5971753 C2.4029804,39.7363965 5.62163872,41.5996838 8.75225934,40.7580853 L8.75225934,40.7580853 Z" id="Path"></path>
                    <path d="M10.7325207,16.7519297 C12.3535882,13.9375773 11.3910427,10.3381252 8.58440079,8.71260425 L7.56785881,8.12407383 L6.98094081,9.14340851 C5.35987329,11.9577609 6.32241881,15.557213 9.1290607,17.182734 L10.1456027,17.7712644 L11.1621447,18.3597948 C13.9687865,19.9853158 17.558377,19.0201259 19.1794446,16.2057735 L19.7663626,15.1864388 L18.7498206,14.5979084 C15.9431787,12.9723874 12.3535882,13.9375773 10.7325207,16.7519297 Z" id="Path"></path>
                    <path d="M6.92929203,24.9160236 L8.06321761,25.2208824 L9.19714318,25.5257411 C12.3277638,26.3673396 15.5464221,24.5040523 16.3857149,21.363654 L16.6897384,20.2266133 L15.5558128,19.9217545 C12.4251922,19.080156 9.20653387,20.9434433 8.36724113,24.0838416 C9.20653387,20.9446204 7.34835148,17.7171196 4.21655702,16.8755211 L3.08263144,16.5706623 L2.77860792,17.7077031 C1.94048901,20.8481014 3.79867141,24.0756022 6.92929203,24.9160236 Z" id="Path"></path>
                    <path d="M17.3658679,8.23942579 L18.5397039,8.23942579 C23.0777539,8.23942579 26.756556,4.55051716 26.756556,0 L25.58272,0 C21.04467,0 17.3658679,3.68890863 17.3658679,8.23942579 Z" id="Path"></path>
                    <path d="M70.1884881,25.8953382 C66.9475269,25.8953382 64.3193081,28.5307774 64.3193081,31.7806423 C64.3193081,28.5307774 61.6910893,25.8953382 58.4501281,25.8953382 L57.276292,25.8953382 L57.276292,27.072399 C57.276292,30.322264 59.9045109,32.9577032 63.1454721,32.9577032 L64.3193081,32.9577032 L65.4931441,32.9577032 C68.7341053,32.9577032 71.3623241,30.322264 71.3623241,27.072399 L71.3623241,25.8953382 L70.1884881,25.8953382 Z" id="Path"></path>
                    <path d="M62.7111527,39.3161858 C63.5504455,36.1769645 61.6922631,32.9494637 58.5604686,32.1078653 L57.4265431,31.8030065 L57.1225195,32.9400473 C56.2832268,36.0792685 58.1414092,39.3067693 61.2732036,40.1483678 L62.4071292,40.4532265 L63.5410548,40.7580853 C66.6716754,41.5996838 69.8903337,39.7363965 70.7296265,36.5959982 L71.03365,35.4589574 L69.8997244,35.1540987 C66.7691038,34.3136772 63.5504455,36.1769645 62.7111527,39.3161858 Z" id="Path"></path>
                    <path d="M59.2142953,46.1784504 C60.8353628,43.3640979 59.8728173,39.7646459 57.0661754,38.1391249 L56.0496334,37.5505945 L55.4627154,38.5699292 C53.8416479,41.3842816 54.8041934,44.9837336 57.6108353,46.6092546 L58.6273773,47.1977851 L59.6439193,47.7863155 C62.4505612,49.4118365 66.0401516,48.4466466 67.6612192,45.6322942 L68.2481372,44.6129595 L67.2315952,44.0244291 C64.4237795,42.3989081 60.834189,43.3640979 59.2142953,46.1784504 Z" id="Path"></path>
                    <path d="M57.384285,11.9483445 L58.214187,11.1161625 L59.0440891,10.2839805 C61.3365908,7.98518065 61.3365908,4.25978313 59.0440891,1.96098334 L58.214187,1.12880133 L57.384285,1.96098334 C55.0917832,4.25978313 55.0917832,7.98518065 57.384285,10.2839805 C55.0917832,7.98518065 51.3765923,7.98518065 49.0840906,10.2839805 L48.2541885,11.1161625 L49.0840906,11.9483445 C51.3754185,14.2459672 55.0917832,14.2459672 57.384285,11.9483445 Z" id="Path"></path>
                    <path d="M61.1323433,18.3597948 L62.1488853,17.7712644 L63.1654273,17.182734 C65.9720692,15.557213 66.9346147,11.9577609 65.3135472,9.14340851 L64.7266292,8.12407383 L63.7100872,8.71260425 C60.9034453,10.3381252 59.9408998,13.9375773 61.5619673,16.7519297 C59.9408998,13.9375773 56.3513093,12.9723874 53.5446674,14.5979084 L52.5281254,15.1864388 L53.1150434,16.2057735 C54.7349371,19.0201259 58.3245276,19.9853158 61.1323433,18.3597948 Z" id="Path"></path>
                    <path d="M63.9272468,24.0838416 C63.0879541,20.9446204 59.8704696,19.0813331 56.7386752,19.9217545 L55.6047496,20.2266133 L55.9087731,21.363654 C56.7480658,24.5028752 59.9655503,26.3661625 63.0973448,25.5257411 L64.2312704,25.2208824 L65.3651959,24.9160236 C68.4958166,24.0744251 70.353999,20.8481014 69.5158801,17.7077031 L69.2118565,16.5706623 L68.077931,16.8755211 C64.9461365,17.7171196 63.0879541,20.9446204 63.9272468,24.0838416 Z" id="Path"></path>
                    <path d="M54.92862,8.23942579 C54.92862,3.68890863 51.249818,0 46.711768,0 L45.537932,0 C45.537932,4.55051716 49.216734,8.23942579 53.754784,8.23942579 L54.92862,8.23942579 Z" id="Path"></path>
                </g>
                <g id="Pink" transform="translate(5.506672, 1.055893)" fill="#FF06F4">
                    <path d="M16.2460284,37.5505945 L15.2294864,38.1391249 C12.4228445,39.7646459 11.460299,43.3640979 13.0813665,46.1784504 C11.460299,43.3640979 7.8707085,42.3989081 5.06406662,44.0244291 L4.04752464,44.6129595 L4.63444264,45.6322942 C6.25551016,48.4466466 9.84510066,49.4118365 12.6517425,47.7863155 L13.6682845,47.1977851 L14.6848265,46.6092546 C17.4914684,44.9837336 18.4540139,41.3842816 16.8329464,38.5699292 L16.2460284,37.5505945 Z" id="Path"></path>
                    <path d="M14.910203,10.2839805 C17.2027047,7.98518065 17.2027047,4.25978313 14.910203,1.96098334 L14.080301,1.12880133 L13.2503989,1.96098334 C10.9578972,4.25978313 10.9578972,7.98518065 13.2503989,10.2839805 L14.080301,11.1161625 L14.910203,11.9483445 C17.2027047,14.2471443 20.9178957,14.2471443 23.2103974,11.9483445 L24.0402994,11.1161625 L23.2103974,10.2839805 C20.9190695,7.98518065 17.2027047,7.98518065 14.910203,10.2839805 Z" id="Path"></path>
                    <path d="M6.8013439,32.9577032 L7.97517991,32.9577032 L9.14901591,32.9577032 C12.3899771,32.9577032 15.0181959,30.322264 15.0181959,27.072399 L15.0181959,25.8953382 L13.8443599,25.8953382 C10.6033987,25.8953382 7.97517991,28.5307774 7.97517991,31.7806423 C7.97517991,28.5307774 5.34696109,25.8953382 2.10599989,25.8953382 L0.932163885,25.8953382 L0.932163885,27.072399 C0.932163885,30.322264 3.5603827,32.9577032 6.8013439,32.9577032 Z" id="Path"></path>
                    <path d="M8.75225934,40.7580853 L9.88618492,40.4532265 L11.0201105,40.1483678 C14.1507311,39.3067693 16.0089135,36.0804455 15.1707946,32.9400473 L14.8667711,31.8030065 L13.7328455,32.1078653 C10.6022249,32.9494637 8.74404249,36.1757875 9.58216139,39.3161858 C8.74286865,36.1769645 5.52538417,34.3136772 2.39358971,35.1540987 L1.26083797,35.4601345 L1.56486149,36.5971753 C2.4029804,39.7363965 5.62163872,41.5996838 8.75225934,40.7580853 L8.75225934,40.7580853 Z" id="Path"></path>
                    <path d="M10.7325207,16.7519297 C12.3535882,13.9375773 11.3910427,10.3381252 8.58440079,8.71260425 L7.56785881,8.12407383 L6.98094081,9.14340851 C5.35987329,11.9577609 6.32241881,15.557213 9.1290607,17.182734 L10.1456027,17.7712644 L11.1621447,18.3597948 C13.9687865,19.9853158 17.558377,19.0201259 19.1794446,16.2057735 L19.7663626,15.1864388 L18.7498206,14.5979084 C15.9431787,12.9723874 12.3535882,13.9375773 10.7325207,16.7519297 Z" id="Path"></path>
                    <path d="M6.92929203,24.9160236 L8.06321761,25.2208824 L9.19714318,25.5257411 C12.3277638,26.3673396 15.5464221,24.5040523 16.3857149,21.363654 L16.6897384,20.2266133 L15.5558128,19.9217545 C12.4251922,19.080156 9.20653387,20.9434433 8.36724113,24.0838416 C9.20653387,20.9446204 7.34835148,17.7171196 4.21655702,16.8755211 L3.08263144,16.5706623 L2.77860792,17.7077031 C1.94048901,20.8481014 3.79867141,24.0756022 6.92929203,24.9160236 Z" id="Path"></path>
                    <path d="M17.3658679,8.23942579 L18.5397039,8.23942579 C23.0777539,8.23942579 26.756556,4.55051716 26.756556,0 L25.58272,0 C21.04467,0 17.3658679,3.68890863 17.3658679,8.23942579 Z" id="Path"></path>
                    <path d="M70.1884881,25.8953382 C66.9475269,25.8953382 64.3193081,28.5307774 64.3193081,31.7806423 C64.3193081,28.5307774 61.6910893,25.8953382 58.4501281,25.8953382 L57.276292,25.8953382 L57.276292,27.072399 C57.276292,30.322264 59.9045109,32.9577032 63.1454721,32.9577032 L64.3193081,32.9577032 L65.4931441,32.9577032 C68.7341053,32.9577032 71.3623241,30.322264 71.3623241,27.072399 L71.3623241,25.8953382 L70.1884881,25.8953382 Z" id="Path"></path>
                    <path d="M62.7111527,39.3161858 C63.5504455,36.1769645 61.6922631,32.9494637 58.5604686,32.1078653 L57.4265431,31.8030065 L57.1225195,32.9400473 C56.2832268,36.0792685 58.1414092,39.3067693 61.2732036,40.1483678 L62.4071292,40.4532265 L63.5410548,40.7580853 C66.6716754,41.5996838 69.8903337,39.7363965 70.7296265,36.5959982 L71.03365,35.4589574 L69.8997244,35.1540987 C66.7691038,34.3136772 63.5504455,36.1769645 62.7111527,39.3161858 Z" id="Path"></path>
                    <path d="M59.2142953,46.1784504 C60.8353628,43.3640979 59.8728173,39.7646459 57.0661754,38.1391249 L56.0496334,37.5505945 L55.4627154,38.5699292 C53.8416479,41.3842816 54.8041934,44.9837336 57.6108353,46.6092546 L58.6273773,47.1977851 L59.6439193,47.7863155 C62.4505612,49.4118365 66.0401516,48.4466466 67.6612192,45.6322942 L68.2481372,44.6129595 L67.2315952,44.0244291 C64.4237795,42.3989081 60.834189,43.3640979 59.2142953,46.1784504 Z" id="Path"></path>
                    <path d="M57.384285,11.9483445 L58.214187,11.1161625 L59.0440891,10.2839805 C61.3365908,7.98518065 61.3365908,4.25978313 59.0440891,1.96098334 L58.214187,1.12880133 L57.384285,1.96098334 C55.0917832,4.25978313 55.0917832,7.98518065 57.384285,10.2839805 C55.0917832,7.98518065 51.3765923,7.98518065 49.0840906,10.2839805 L48.2541885,11.1161625 L49.0840906,11.9483445 C51.3754185,14.2459672 55.0917832,14.2459672 57.384285,11.9483445 Z" id="Path"></path>
                    <path d="M61.1323433,18.3597948 L62.1488853,17.7712644 L63.1654273,17.182734 C65.9720692,15.557213 66.9346147,11.9577609 65.3135472,9.14340851 L64.7266292,8.12407383 L63.7100872,8.71260425 C60.9034453,10.3381252 59.9408998,13.9375773 61.5619673,16.7519297 C59.9408998,13.9375773 56.3513093,12.9723874 53.5446674,14.5979084 L52.5281254,15.1864388 L53.1150434,16.2057735 C54.7349371,19.0201259 58.3245276,19.9853158 61.1323433,18.3597948 Z" id="Path"></path>
                    <path d="M63.9272468,24.0838416 C63.0879541,20.9446204 59.8704696,19.0813331 56.7386752,19.9217545 L55.6047496,20.2266133 L55.9087731,21.363654 C56.7480658,24.5028752 59.9655503,26.3661625 63.0973448,25.5257411 L64.2312704,25.2208824 L65.3651959,24.9160236 C68.4958166,24.0744251 70.353999,20.8481014 69.5158801,17.7077031 L69.2118565,16.5706623 L68.077931,16.8755211 C64.9461365,17.7171196 63.0879541,20.9446204 63.9272468,24.0838416 Z" id="Path"></path>
                    <path d="M54.92862,8.23942579 C54.92862,3.68890863 51.249818,0 46.711768,0 L45.537932,0 C45.537932,4.55051716 49.216734,8.23942579 53.754784,8.23942579 L54.92862,8.23942579 Z" id="Path"></path>
                </g>
                <g id="White" transform="translate(2.347672, 0.000000)" fill="#1C1C1C">
                    <path d="M16.2460284,37.5505945 L15.2294864,38.1391249 C12.4228445,39.7646459 11.460299,43.3640979 13.0813665,46.1784504 C11.460299,43.3640979 7.8707085,42.3989081 5.06406662,44.0244291 L4.04752464,44.6129595 L4.63444264,45.6322942 C6.25551016,48.4466466 9.84510066,49.4118365 12.6517425,47.7863155 L13.6682845,47.1977851 L14.6848265,46.6092546 C17.4914684,44.9837336 18.4540139,41.3842816 16.8329464,38.5699292 L16.2460284,37.5505945 Z" id="Path"></path>
                    <path d="M14.910203,10.2839805 C17.2027047,7.98518065 17.2027047,4.25978313 14.910203,1.96098334 L14.080301,1.12880133 L13.2503989,1.96098334 C10.9578972,4.25978313 10.9578972,7.98518065 13.2503989,10.2839805 L14.080301,11.1161625 L14.910203,11.9483445 C17.2027047,14.2471443 20.9178957,14.2471443 23.2103974,11.9483445 L24.0402994,11.1161625 L23.2103974,10.2839805 C20.9190695,7.98518065 17.2027047,7.98518065 14.910203,10.2839805 Z" id="Path"></path>
                    <path d="M6.8013439,32.9577032 L7.97517991,32.9577032 L9.14901591,32.9577032 C12.3899771,32.9577032 15.0181959,30.322264 15.0181959,27.072399 L15.0181959,25.8953382 L13.8443599,25.8953382 C10.6033987,25.8953382 7.97517991,28.5307774 7.97517991,31.7806423 C7.97517991,28.5307774 5.34696109,25.8953382 2.10599989,25.8953382 L0.932163885,25.8953382 L0.932163885,27.072399 C0.932163885,30.322264 3.5603827,32.9577032 6.8013439,32.9577032 Z" id="Path"></path>
                    <path d="M8.75225934,40.7580853 L9.88618492,40.4532265 L11.0201105,40.1483678 C14.1507311,39.3067693 16.0089135,36.0804455 15.1707946,32.9400473 L14.8667711,31.8030065 L13.7328455,32.1078653 C10.6022249,32.9494637 8.74404249,36.1757875 9.58216139,39.3161858 C8.74286865,36.1769645 5.52538417,34.3136772 2.39358971,35.1540987 L1.26083797,35.4601345 L1.56486149,36.5971753 C2.4029804,39.7363965 5.62163872,41.5996838 8.75225934,40.7580853 L8.75225934,40.7580853 Z" id="Path"></path>
                    <path d="M10.7325207,16.7519297 C12.3535882,13.9375773 11.3910427,10.3381252 8.58440079,8.71260425 L7.56785881,8.12407383 L6.98094081,9.14340851 C5.35987329,11.9577609 6.32241881,15.557213 9.1290607,17.182734 L10.1456027,17.7712644 L11.1621447,18.3597948 C13.9687865,19.9853158 17.558377,19.0201259 19.1794446,16.2057735 L19.7663626,15.1864388 L18.7498206,14.5979084 C15.9431787,12.9723874 12.3535882,13.9375773 10.7325207,16.7519297 Z" id="Path"></path>
                    <path d="M6.92929203,24.9160236 L8.06321761,25.2208824 L9.19714318,25.5257411 C12.3277638,26.3673396 15.5464221,24.5040523 16.3857149,21.363654 L16.6897384,20.2266133 L15.5558128,19.9217545 C12.4251922,19.080156 9.20653387,20.9434433 8.36724113,24.0838416 C9.20653387,20.9446204 7.34835148,17.7171196 4.21655702,16.8755211 L3.08263144,16.5706623 L2.77860792,17.7077031 C1.94048901,20.8481014 3.79867141,24.0756022 6.92929203,24.9160236 Z" id="Path"></path>
                    <path d="M17.3658679,8.23942579 L18.5397039,8.23942579 C23.0777539,8.23942579 26.756556,4.55051716 26.756556,0 L25.58272,0 C21.04467,0 17.3658679,3.68890863 17.3658679,8.23942579 Z" id="Path"></path>
                    <path d="M70.1884881,25.8953382 C66.9475269,25.8953382 64.3193081,28.5307774 64.3193081,31.7806423 C64.3193081,28.5307774 61.6910893,25.8953382 58.4501281,25.8953382 L57.276292,25.8953382 L57.276292,27.072399 C57.276292,30.322264 59.9045109,32.9577032 63.1454721,32.9577032 L64.3193081,32.9577032 L65.4931441,32.9577032 C68.7341053,32.9577032 71.3623241,30.322264 71.3623241,27.072399 L71.3623241,25.8953382 L70.1884881,25.8953382 Z" id="Path"></path>
                    <path d="M62.7111527,39.3161858 C63.5504455,36.1769645 61.6922631,32.9494637 58.5604686,32.1078653 L57.4265431,31.8030065 L57.1225195,32.9400473 C56.2832268,36.0792685 58.1414092,39.3067693 61.2732036,40.1483678 L62.4071292,40.4532265 L63.5410548,40.7580853 C66.6716754,41.5996838 69.8903337,39.7363965 70.7296265,36.5959982 L71.03365,35.4589574 L69.8997244,35.1540987 C66.7691038,34.3136772 63.5504455,36.1769645 62.7111527,39.3161858 Z" id="Path"></path>
                    <path d="M59.2142953,46.1784504 C60.8353628,43.3640979 59.8728173,39.7646459 57.0661754,38.1391249 L56.0496334,37.5505945 L55.4627154,38.5699292 C53.8416479,41.3842816 54.8041934,44.9837336 57.6108353,46.6092546 L58.6273773,47.1977851 L59.6439193,47.7863155 C62.4505612,49.4118365 66.0401516,48.4466466 67.6612192,45.6322942 L68.2481372,44.6129595 L67.2315952,44.0244291 C64.4237795,42.3989081 60.834189,43.3640979 59.2142953,46.1784504 Z" id="Path"></path>
                    <path d="M57.384285,11.9483445 L58.214187,11.1161625 L59.0440891,10.2839805 C61.3365908,7.98518065 61.3365908,4.25978313 59.0440891,1.96098334 L58.214187,1.12880133 L57.384285,1.96098334 C55.0917832,4.25978313 55.0917832,7.98518065 57.384285,10.2839805 C55.0917832,7.98518065 51.3765923,7.98518065 49.0840906,10.2839805 L48.2541885,11.1161625 L49.0840906,11.9483445 C51.3754185,14.2459672 55.0917832,14.2459672 57.384285,11.9483445 Z" id="Path"></path>
                    <path d="M61.1323433,18.3597948 L62.1488853,17.7712644 L63.1654273,17.182734 C65.9720692,15.557213 66.9346147,11.9577609 65.3135472,9.14340851 L64.7266292,8.12407383 L63.7100872,8.71260425 C60.9034453,10.3381252 59.9408998,13.9375773 61.5619673,16.7519297 C59.9408998,13.9375773 56.3513093,12.9723874 53.5446674,14.5979084 L52.5281254,15.1864388 L53.1150434,16.2057735 C54.7349371,19.0201259 58.3245276,19.9853158 61.1323433,18.3597948 Z" id="Path"></path>
                    <path d="M63.9272468,24.0838416 C63.0879541,20.9446204 59.8704696,19.0813331 56.7386752,19.9217545 L55.6047496,20.2266133 L55.9087731,21.363654 C56.7480658,24.5028752 59.9655503,26.3661625 63.0973448,25.5257411 L64.2312704,25.2208824 L65.3651959,24.9160236 C68.4958166,24.0744251 70.353999,20.8481014 69.5158801,17.7077031 L69.2118565,16.5706623 L68.077931,16.8755211 C64.9461365,17.7171196 63.0879541,20.9446204 63.9272468,24.0838416 Z" id="Path"></path>
                    <path d="M54.92862,8.23942579 C54.92862,3.68890863 51.249818,0 46.711768,0 L45.537932,0 C45.537932,4.55051716 49.216734,8.23942579 53.754784,8.23942579 L54.92862,8.23942579 Z" id="Path"></path>
                </g>
            </g>
        </g>
    </g>
</svg>